# Blender v2.74 (sub 0) OBJ File: 'GemChangerTriangulated.blend'
# www.blender.org
mtllib GemChanger.mtl
o Cube_Cube.001
v -0.500000 -0.500000 0.500000
v -0.500000 -0.500000 -0.500000
v 0.500000 -0.500000 0.500000
v 0.500000 -0.500000 -0.500000
v -0.500000 -0.357143 0.500000
v -0.500000 -0.214286 0.500000
v -0.500000 -0.071429 0.500000
v -0.500000 0.071429 0.500000
v -0.500000 0.071429 -0.500000
v -0.500000 -0.071429 -0.500000
v -0.500000 -0.214286 -0.500000
v -0.500000 -0.357143 -0.500000
v -0.500000 -0.500000 -0.357143
v -0.400000 -0.500000 -0.214286
v -0.400000 -0.500000 -0.071429
v -0.400000 -0.500000 0.071429
v -0.400000 -0.500000 0.214286
v -0.500000 -0.500000 0.357143
v 0.500000 0.071429 -0.500000
v 0.500000 -0.071429 -0.500000
v 0.500000 -0.214286 -0.500000
v 0.500000 -0.357143 -0.500000
v 0.357143 -0.500000 -0.500000
v 0.214286 -0.500000 -0.400000
v 0.071429 -0.500000 -0.400000
v -0.071429 -0.500000 -0.400000
v -0.214286 -0.500000 -0.400000
v -0.357143 -0.500000 -0.500000
v 0.500000 0.071429 0.500000
v 0.500000 -0.071429 0.500000
v 0.500000 -0.214286 0.500000
v 0.500000 -0.357143 0.500000
v 0.500000 -0.500000 0.357143
v 0.400000 -0.500000 0.214286
v 0.400000 -0.500000 0.071429
v 0.400000 -0.500000 -0.071429
v 0.400000 -0.500000 -0.214286
v 0.500000 -0.500000 -0.357143
v -0.357143 -0.500000 0.500000
v -0.214286 -0.500000 0.400000
v -0.071429 -0.500000 0.400000
v 0.071429 -0.500000 0.400000
v 0.214286 -0.500000 0.400000
v 0.357143 -0.500000 0.500000
v -0.357143 -0.500000 0.357143
v -0.214286 -0.500000 0.357143
v -0.071429 -0.500000 0.357143
v 0.071429 -0.500000 0.357143
v 0.214286 -0.500000 0.357143
v 0.357143 -0.500000 0.357143
v -0.357143 -0.500000 0.214286
v -0.214286 -0.500000 0.214286
v -0.071429 -0.500000 0.214286
v 0.071429 -0.500000 0.214286
v 0.214286 -0.500000 0.214286
v 0.357143 -0.500000 0.214286
v -0.357143 -0.500000 0.071429
v -0.214286 -0.500000 0.071429
v -0.071429 -0.500000 0.071429
v 0.071429 -0.500000 0.071429
v 0.214286 -0.500000 0.071429
v 0.357143 -0.500000 0.071429
v -0.357143 -0.500000 -0.071429
v -0.214286 -0.500000 -0.071429
v -0.071429 -0.500000 -0.071429
v 0.071429 -0.500000 -0.071429
v 0.214286 -0.500000 -0.071429
v 0.357143 -0.500000 -0.071429
v -0.357143 -0.500000 -0.214286
v -0.214286 -0.500000 -0.214286
v -0.071429 -0.500000 -0.214286
v 0.071429 -0.500000 -0.214286
v 0.214286 -0.500000 -0.214286
v 0.357143 -0.500000 -0.214286
v -0.357143 -0.500000 -0.357143
v -0.214286 -0.500000 -0.357143
v -0.071429 -0.500000 -0.357143
v 0.071429 -0.500000 -0.357143
v 0.214286 -0.500000 -0.357143
v 0.357143 -0.500000 -0.357143
v 0.357143 0.071429 0.500000
v 0.357143 -0.071429 0.500000
v 0.357143 -0.214286 0.500000
v 0.357143 -0.357143 0.500000
v 0.214286 0.071429 0.400000
v 0.214286 -0.071429 0.400000
v 0.214286 -0.214286 0.400000
v 0.214286 -0.357143 0.400000
v 0.071429 0.071429 0.400000
v 0.071429 -0.071429 0.400000
v 0.071429 -0.214286 0.400000
v 0.071429 -0.357143 0.400000
v -0.071429 0.071429 0.400000
v -0.071429 -0.071429 0.400000
v -0.071429 -0.214286 0.400000
v -0.071429 -0.357143 0.400000
v -0.214286 0.071429 0.400000
v -0.214286 -0.071429 0.400000
v -0.214286 -0.214286 0.400000
v -0.214286 -0.357143 0.400000
v -0.357143 0.071429 0.500000
v -0.357143 -0.071429 0.500000
v -0.357143 -0.214286 0.500000
v -0.357143 -0.357143 0.500000
v 0.500000 0.071429 -0.357143
v 0.500000 -0.071429 -0.357143
v 0.500000 -0.214286 -0.357143
v 0.500000 -0.357143 -0.357143
v 0.400000 0.071429 -0.214286
v 0.400000 -0.071429 -0.214286
v 0.400000 -0.214286 -0.214286
v 0.400000 -0.357143 -0.214286
v 0.400000 0.071429 -0.071429
v 0.400000 -0.071429 -0.071429
v 0.400000 -0.214286 -0.071429
v 0.400000 -0.357143 -0.071429
v 0.400000 0.071429 0.071429
v 0.400000 -0.071429 0.071429
v 0.400000 -0.214286 0.071429
v 0.400000 -0.357143 0.071429
v 0.400000 0.071429 0.214286
v 0.400000 -0.071429 0.214286
v 0.400000 -0.214286 0.214286
v 0.400000 -0.357143 0.214286
v 0.500000 0.071429 0.357143
v 0.500000 -0.071429 0.357143
v 0.500000 -0.214286 0.357143
v 0.500000 -0.357143 0.357143
v -0.357143 0.071429 -0.500000
v -0.357143 -0.071429 -0.500000
v -0.357143 -0.214286 -0.500000
v -0.357143 -0.357143 -0.500000
v -0.214286 0.071429 -0.400000
v -0.214286 -0.071429 -0.400000
v -0.214286 -0.214286 -0.400000
v -0.214286 -0.357143 -0.400000
v -0.071429 0.071429 -0.400000
v -0.071429 -0.071429 -0.400000
v -0.071429 -0.214286 -0.400000
v -0.071429 -0.357143 -0.400000
v 0.071429 0.071429 -0.400000
v 0.071429 -0.071429 -0.400000
v 0.071429 -0.214286 -0.400000
v 0.071429 -0.357143 -0.400000
v 0.214286 0.071429 -0.400000
v 0.214286 -0.071429 -0.400000
v 0.214286 -0.214286 -0.400000
v 0.214286 -0.357143 -0.400000
v 0.357143 0.071429 -0.500000
v 0.357143 -0.071429 -0.500000
v 0.357143 -0.214286 -0.500000
v 0.357143 -0.357143 -0.500000
v -0.500000 0.071429 0.357143
v -0.500000 -0.071429 0.357143
v -0.500000 -0.214286 0.357143
v -0.500000 -0.357143 0.357143
v -0.400000 0.071429 0.214286
v -0.400000 -0.071429 0.214286
v -0.400000 -0.214286 0.214286
v -0.400000 -0.357143 0.214286
v -0.400000 0.071429 0.071429
v -0.400000 -0.071429 0.071429
v -0.400000 -0.214286 0.071429
v -0.400000 -0.357143 0.071429
v -0.400000 0.071429 -0.071429
v -0.400000 -0.071429 -0.071429
v -0.400000 -0.214286 -0.071429
v -0.400000 -0.357143 -0.071429
v -0.400000 0.071429 -0.214286
v -0.400000 -0.071429 -0.214286
v -0.400000 -0.214286 -0.214286
v -0.400000 -0.357143 -0.214286
v -0.500000 0.071429 -0.357143
v -0.500000 -0.071429 -0.357143
v -0.500000 -0.214286 -0.357143
v -0.500000 -0.357143 -0.357143
v -0.214290 0.071429 0.214286
v -0.214290 0.071429 0.071429
v -0.214290 0.071429 -0.071429
v -0.214290 0.071429 -0.214286
v 0.214290 0.071429 -0.214286
v 0.214290 0.071429 -0.071429
v 0.214290 0.071429 0.071429
v 0.214290 0.071429 0.214286
v -0.214290 0.071429 -0.214286
v 0.214290 0.071429 -0.214286
v -0.071430 0.071429 -0.214286
v 0.071430 0.071429 -0.214286
v -0.071430 0.071429 0.214286
v 0.071430 0.071429 0.214286
v 0.128574 0.071429 0.214286
v 0.042858 0.071429 0.214286
v -0.042858 0.071429 0.214286
v -0.128574 0.071429 0.214286
v 0.214290 0.071429 -0.128571
v 0.214290 0.071429 -0.042857
v 0.214290 0.071429 0.042857
v 0.214290 0.071429 0.128571
v -0.214290 0.071429 0.128571
v -0.214290 0.071429 0.042857
v -0.214290 0.071429 -0.042857
v -0.214290 0.071429 -0.128571
v -0.128574 0.071429 -0.214286
v -0.042858 0.071429 -0.214286
v 0.042858 0.071429 -0.214286
v 0.128574 0.071429 -0.214286
v 0.128574 0.021429 -0.128571
v 0.042858 0.021429 -0.128571
v -0.042858 0.021429 -0.128571
v -0.128574 0.021429 -0.128571
v 0.128574 0.021429 -0.042857
v 0.042858 0.021429 -0.042857
v -0.042858 0.021429 -0.042857
v -0.128574 0.021429 -0.042857
v 0.128574 0.021429 0.042857
v 0.042858 0.021429 0.042857
v -0.042858 0.021429 0.042857
v -0.128574 0.021429 0.042857
v 0.128574 0.021429 0.128571
v 0.042858 0.021429 0.128571
v -0.042858 0.021429 0.128571
v -0.128574 0.021429 0.128571
vt 0.513537 0.107080
vt 0.513537 0.040236
vt 0.577628 0.040236
vt 0.100838 0.956842
vt 0.033994 0.956842
vt 0.033994 0.892751
vt 0.100838 0.572292
vt 0.033994 0.572292
vt 0.033994 0.508200
vt 0.100838 0.636384
vt 0.080785 0.636384
vt 0.100838 0.700475
vt 0.080785 0.700475
vt 0.100838 0.764567
vt 0.080785 0.764567
vt 0.100838 0.828659
vt 0.080785 0.828659
vt 0.100838 0.892751
vt 0.501903 0.572292
vt 0.435058 0.572292
vt 0.435058 0.508200
vt 0.368214 0.572292
vt 0.368214 0.553064
vt 0.301370 0.572292
vt 0.301370 0.553064
vt 0.234526 0.572292
vt 0.234526 0.553064
vt 0.167682 0.572292
vt 0.167682 0.553064
vt 0.455112 0.636384
vt 0.435058 0.636384
vt 0.368214 0.636384
vt 0.301370 0.636384
vt 0.234526 0.636384
vt 0.167682 0.636384
vt 0.455112 0.700475
vt 0.435058 0.700475
vt 0.368214 0.700475
vt 0.301370 0.700475
vt 0.234526 0.700475
vt 0.167682 0.700475
vt 0.455112 0.764567
vt 0.435058 0.764567
vt 0.368214 0.764567
vt 0.301370 0.764567
vt 0.234526 0.764567
vt 0.167682 0.764567
vt 0.455112 0.828659
vt 0.435058 0.828659
vt 0.368214 0.828659
vt 0.301370 0.828659
vt 0.234526 0.828659
vt 0.167682 0.828659
vt 0.501903 0.892751
vt 0.435058 0.892751
vt 0.368214 0.892751
vt 0.301370 0.892751
vt 0.234526 0.892751
vt 0.167682 0.892751
vt 0.501903 0.956842
vt 0.435058 0.956842
vt 0.368214 0.911978
vt 0.301370 0.911978
vt 0.234526 0.911978
vt 0.167682 0.911978
vt 0.898087 0.107080
vt 0.898087 0.040236
vt 0.962179 0.040236
vt 0.833995 0.107080
vt 0.833995 0.040236
vt 0.769904 0.107080
vt 0.769904 0.040236
vt 0.705812 0.107080
vt 0.705812 0.040236
vt 0.641720 0.107080
vt 0.641720 0.040236
vt 0.577628 0.107080
vt 0.898087 0.307613
vt 0.898087 0.240768
vt 0.962179 0.240768
vt 0.898087 0.173924
vt 0.962179 0.173924
vt 0.962179 0.107080
vt 0.833995 0.307613
vt 0.833995 0.240768
vt 0.833995 0.173924
vt 0.769904 0.307613
vt 0.769904 0.240768
vt 0.769904 0.173924
vt 0.705812 0.307613
vt 0.705812 0.240768
vt 0.705812 0.173924
vt 0.641720 0.307613
vt 0.641720 0.240768
vt 0.641720 0.173924
vt 0.577628 0.307613
vt 0.577628 0.240768
vt 0.577628 0.173924
vt 0.513537 0.307613
vt 0.513537 0.240768
vt 0.513537 0.173924
vt 0.431680 0.030845
vt 0.498524 0.030845
vt 0.498524 0.094936
vt 0.498524 0.415395
vt 0.498524 0.479486
vt 0.431680 0.479486
vt 0.030616 0.415395
vt 0.077407 0.351303
vt 0.097460 0.479487
vt 0.030616 0.094936
vt 0.030616 0.030845
vt 0.097460 0.030845
vt 0.297992 0.434622
vt 0.297992 0.351305
vt 0.364836 0.351305
vt 0.231148 0.434622
vt 0.231148 0.351305
vt 0.164304 0.434622
vt 0.164304 0.351305
vt 0.231148 0.075709
vt 0.231148 0.159026
vt 0.164304 0.159026
vt 0.297992 0.075709
vt 0.297992 0.159026
vt 0.364836 0.075709
vt 0.364836 0.159026
vt 0.077407 0.159028
vt 0.164304 0.075709
vt 0.451734 0.159028
vt 0.364836 0.434622
vt 0.451734 0.351303
vt 0.451734 0.223120
vt 0.364836 0.223119
vt 0.451734 0.287211
vt 0.364836 0.287212
vt 0.164304 0.287212
vt 0.164304 0.223119
vt 0.077407 0.287211
vt 0.164682 0.312604
vt 0.204616 0.350908
vt 0.164682 0.350908
vt 0.364353 0.312604
vt 0.324419 0.350908
vt 0.324419 0.312604
vt 0.284485 0.312604
vt 0.284484 0.350908
vt 0.244550 0.312604
vt 0.244550 0.350908
vt 0.204616 0.312604
vt 0.324419 0.159389
vt 0.364353 0.197693
vt 0.324419 0.197693
vt 0.364353 0.235997
vt 0.324419 0.235997
vt 0.364353 0.274300
vt 0.324419 0.274300
vt 0.284485 0.159389
vt 0.284484 0.197693
vt 0.284485 0.235997
vt 0.284485 0.274300
vt 0.244550 0.159389
vt 0.244550 0.197693
vt 0.244550 0.235997
vt 0.244550 0.274300
vt 0.204616 0.159389
vt 0.204616 0.197693
vt 0.204616 0.235997
vt 0.204616 0.274300
vt 0.164682 0.197693
vt 0.164682 0.159389
vt 0.164682 0.235997
vt 0.164682 0.274300
vt 0.100838 0.508200
vt 0.501903 0.508200
vt 0.962179 0.307613
vt 0.030616 0.479487
vt 0.077407 0.223120
vt 0.364353 0.350908
vt 0.364353 0.159389
vn -1.000000 0.000000 0.000000
vn 0.000000 0.000000 -1.000000
vn 1.000000 0.000000 0.000000
vn 0.000000 0.000000 1.000000
vn 0.000000 -1.000000 0.000000
vn -0.573500 0.000000 0.819200
vn 0.573500 0.000000 0.819200
vn 0.819200 0.000000 0.573500
vn 0.819200 0.000000 -0.573500
vn 0.573500 0.000000 -0.819200
vn -0.573500 0.000000 -0.819200
vn -0.819200 0.000000 -0.573500
vn -0.819200 0.000000 0.573500
vn 0.000000 1.000000 0.000000
vn 0.450000 0.771400 0.450000
vn 0.503900 0.863800 0.000000
vn -0.450000 0.771400 0.450000
vn 0.000000 0.863800 0.503900
vn -0.503900 0.863800 0.000000
vn 0.000000 0.863800 -0.503900
vn 0.450000 0.771400 -0.450000
vn -0.450000 0.771400 -0.450000
usemtl None
s off
f 12/1/1 2/2/1 13/3/1
f 22/1/2 4/2/2 23/3/2
f 32/1/3 3/2/3 33/3/3
f 5/1/4 1/2/4 39/3/4
f 23/4/5 4/5/5 38/6/5
f 50/7/5 33/8/5 3/9/5
f 50/7/5 56/10/5 34/11/5
f 62/12/5 35/13/5 34/11/5
f 68/14/5 36/15/5 35/13/5
f 74/16/5 37/17/5 36/15/5
f 80/18/5 38/6/5 37/17/5
f 18/19/5 45/20/5 39/21/5
f 45/20/5 46/22/5 40/23/5
f 46/22/5 47/24/5 41/25/5
f 47/24/5 48/26/5 42/27/5
f 48/26/5 49/28/5 43/29/5
f 43/29/5 49/28/5 50/7/5
f 17/30/5 51/31/5 45/20/5
f 51/31/5 52/32/5 46/22/5
f 52/32/5 53/33/5 47/24/5
f 53/33/5 54/34/5 48/26/5
f 54/34/5 55/35/5 49/28/5
f 55/35/5 56/10/5 50/7/5
f 16/36/5 57/37/5 51/31/5
f 57/37/5 58/38/5 52/32/5
f 58/38/5 59/39/5 53/33/5
f 59/39/5 60/40/5 54/34/5
f 60/40/5 61/41/5 55/35/5
f 61/41/5 62/12/5 56/10/5
f 15/42/5 63/43/5 57/37/5
f 63/43/5 64/44/5 58/38/5
f 64/44/5 65/45/5 59/39/5
f 65/45/5 66/46/5 60/40/5
f 66/46/5 67/47/5 61/41/5
f 67/47/5 68/14/5 62/12/5
f 14/48/5 69/49/5 63/43/5
f 69/49/5 70/50/5 64/44/5
f 70/50/5 71/51/5 65/45/5
f 71/51/5 72/52/5 66/46/5
f 72/52/5 73/53/5 67/47/5
f 73/53/5 74/16/5 68/14/5
f 14/48/5 13/54/5 75/55/5
f 75/55/5 76/56/5 70/50/5
f 76/56/5 77/57/5 71/51/5
f 77/57/5 78/58/5 72/52/5
f 78/58/5 79/59/5 73/53/5
f 79/59/5 80/18/5 74/16/5
f 2/60/5 28/61/5 75/55/5
f 75/55/5 28/61/5 27/62/5
f 27/62/5 26/63/5 77/57/5
f 26/63/5 25/64/5 78/58/5
f 25/64/5 24/65/5 79/59/5
f 24/65/5 23/4/5 80/18/5
f 84/66/4 44/67/4 3/68/4
f 88/69/6 43/70/6 44/67/6
f 92/71/4 42/72/4 43/70/4
f 96/73/4 41/74/4 42/72/4
f 100/75/4 40/76/4 41/74/4
f 104/77/7 39/3/7 40/76/7
f 81/78/4 82/79/4 30/80/4
f 82/79/4 83/81/4 31/82/4
f 83/81/4 84/66/4 32/83/4
f 85/84/6 86/85/6 82/79/6
f 86/85/6 87/86/6 83/81/6
f 87/86/6 88/69/6 84/66/6
f 89/87/4 90/88/4 86/85/4
f 90/88/4 91/89/4 87/86/4
f 91/89/4 92/71/4 88/69/4
f 93/90/4 94/91/4 90/88/4
f 94/91/4 95/92/4 91/89/4
f 95/92/4 96/73/4 92/71/4
f 97/93/4 98/94/4 94/91/4
f 98/94/4 99/95/4 95/92/4
f 99/95/4 100/75/4 96/73/4
f 101/96/7 102/97/7 98/94/7
f 102/97/7 103/98/7 99/95/7
f 103/98/7 104/77/7 100/75/7
f 8/99/4 7/100/4 102/97/4
f 7/100/4 6/101/4 103/98/4
f 6/101/4 5/1/4 104/77/4
f 108/66/3 38/67/3 4/68/3
f 112/69/8 37/70/8 38/67/8
f 116/71/3 36/72/3 37/70/3
f 120/73/3 35/74/3 36/72/3
f 124/75/3 34/76/3 35/74/3
f 128/77/9 33/3/9 34/76/9
f 105/78/3 106/79/3 20/80/3
f 106/79/3 107/81/3 21/82/3
f 107/81/3 108/66/3 22/83/3
f 109/84/8 110/85/8 106/79/8
f 110/85/8 111/86/8 107/81/8
f 111/86/8 112/69/8 108/66/8
f 113/87/3 114/88/3 110/85/3
f 114/88/3 115/89/3 111/86/3
f 115/89/3 116/71/3 112/69/3
f 117/90/3 118/91/3 114/88/3
f 118/91/3 119/92/3 115/89/3
f 119/92/3 120/73/3 116/71/3
f 121/93/3 122/94/3 118/91/3
f 122/94/3 123/95/3 119/92/3
f 123/95/3 124/75/3 120/73/3
f 125/96/9 126/97/9 122/94/9
f 126/97/9 127/98/9 123/95/9
f 127/98/9 128/77/9 124/75/9
f 29/99/3 30/100/3 126/97/3
f 30/100/3 31/101/3 127/98/3
f 31/101/3 32/1/3 128/77/3
f 132/66/2 28/67/2 2/68/2
f 136/69/10 27/70/10 28/67/10
f 140/71/2 26/72/2 27/70/2
f 144/73/2 25/74/2 26/72/2
f 148/75/2 24/76/2 25/74/2
f 152/77/11 23/3/11 24/76/11
f 129/78/2 130/79/2 10/80/2
f 130/79/2 131/81/2 11/82/2
f 131/81/2 132/66/2 12/83/2
f 133/84/10 134/85/10 130/79/10
f 134/85/10 135/86/10 131/81/10
f 135/86/10 136/69/10 132/66/10
f 137/87/2 138/88/2 134/85/2
f 138/88/2 139/89/2 135/86/2
f 139/89/2 140/71/2 136/69/2
f 141/90/2 142/91/2 138/88/2
f 142/91/2 143/92/2 139/89/2
f 143/92/2 144/73/2 140/71/2
f 145/93/2 146/94/2 142/91/2
f 146/94/2 147/95/2 143/92/2
f 147/95/2 148/75/2 144/73/2
f 149/96/11 150/97/11 146/94/11
f 150/97/11 151/98/11 147/95/11
f 151/98/11 152/77/11 148/75/11
f 19/99/2 20/100/2 150/97/2
f 20/100/2 21/101/2 151/98/2
f 21/101/2 22/1/2 152/77/2
f 156/66/1 18/67/1 1/68/1
f 160/69/12 17/70/12 18/67/12
f 164/71/1 16/72/1 17/70/1
f 168/73/1 15/74/1 16/72/1
f 172/75/1 14/76/1 15/74/1
f 176/77/13 13/3/13 14/76/13
f 153/78/1 154/79/1 7/80/1
f 154/79/1 155/81/1 6/82/1
f 155/81/1 156/66/1 5/83/1
f 157/84/12 158/85/12 154/79/12
f 158/85/12 159/86/12 155/81/12
f 159/86/12 160/69/12 156/66/12
f 161/87/1 162/88/1 158/85/1
f 162/88/1 163/89/1 159/86/1
f 163/89/1 164/71/1 160/69/1
f 165/90/1 166/91/1 162/88/1
f 166/91/1 167/92/1 163/89/1
f 167/92/1 168/73/1 164/71/1
f 169/93/1 170/94/1 166/91/1
f 170/94/1 171/95/1 167/92/1
f 171/95/1 172/75/1 168/73/1
f 105/102/14 19/103/14 149/104/14
f 173/96/13 174/97/13 170/94/13
f 174/97/13 175/98/13 171/95/13
f 175/98/13 176/77/13 172/75/13
f 9/99/1 10/100/1 174/97/1
f 10/100/1 11/101/1 175/98/1
f 11/101/1 12/1/1 176/77/1
f 129/105/14 9/106/14 173/107/14
f 101/108/14 97/109/14 153/110/14
f 81/111/14 29/112/14 125/113/14
f 165/114/14 179/115/14 180/116/14
f 161/117/14 178/118/14 179/115/14
f 157/119/14 177/120/14 178/118/14
f 117/121/14 183/122/14 184/123/14
f 113/124/14 182/125/14 183/122/14
f 109/126/14 181/127/14 182/125/14
f 157/119/14 97/109/14 177/120/14
f 85/128/14 121/129/14 184/123/14
f 145/130/14 181/127/14 109/126/14
f 169/131/14 180/116/14 133/132/14
f 145/130/14 141/133/14 188/134/14
f 137/135/14 187/136/14 188/134/14
f 133/132/14 185/116/14 187/136/14
f 189/137/14 177/120/14 97/109/14
f 190/138/14 189/137/14 93/139/14
f 85/128/14 184/123/14 190/138/14
f 194/140/14 199/141/14 177/142/14
f 203/143/15 202/144/15 210/145/15
f 214/146/16 202/144/16 201/147/16
f 218/148/16 201/147/16 200/149/16
f 222/150/16 200/149/16 199/141/16
f 195/151/17 206/152/17 207/153/17
f 207/153/18 205/154/18 208/155/18
f 208/155/18 204/156/18 209/157/18
f 209/157/18 203/143/18 210/145/18
f 196/158/19 207/153/19 211/159/19
f 211/159/14 208/155/14 212/160/14
f 212/160/14 209/157/14 213/161/14
f 213/161/14 210/145/14 214/146/14
f 197/162/19 211/159/19 215/163/19
f 215/163/14 212/160/14 216/164/14
f 216/164/14 213/161/14 217/165/14
f 217/165/14 214/146/14 218/148/14
f 198/166/19 215/163/19 219/167/19
f 219/167/14 216/164/14 220/168/14
f 220/168/14 217/165/14 221/169/14
f 221/169/14 218/148/14 222/150/14
f 198/166/14 191/170/14 184/171/14
f 191/170/20 220/168/20 192/172/20
f 192/172/20 221/169/20 193/173/20
f 193/173/20 222/150/20 194/140/20
f 176/77/1 12/1/1 13/3/1
f 152/77/2 22/1/2 23/3/2
f 128/77/3 32/1/3 33/3/3
f 104/77/4 5/1/4 39/3/4
f 80/18/5 23/4/5 38/6/5
f 44/174/5 50/7/5 3/9/5
f 33/8/5 50/7/5 34/11/5
f 56/10/5 62/12/5 34/11/5
f 62/12/5 68/14/5 35/13/5
f 68/14/5 74/16/5 36/15/5
f 74/16/5 80/18/5 37/17/5
f 1/175/5 18/19/5 39/21/5
f 39/21/5 45/20/5 40/23/5
f 40/23/5 46/22/5 41/25/5
f 41/25/5 47/24/5 42/27/5
f 42/27/5 48/26/5 43/29/5
f 44/174/5 43/29/5 50/7/5
f 18/19/5 17/30/5 45/20/5
f 45/20/5 51/31/5 46/22/5
f 46/22/5 52/32/5 47/24/5
f 47/24/5 53/33/5 48/26/5
f 48/26/5 54/34/5 49/28/5
f 49/28/5 55/35/5 50/7/5
f 17/30/5 16/36/5 51/31/5
f 51/31/5 57/37/5 52/32/5
f 52/32/5 58/38/5 53/33/5
f 53/33/5 59/39/5 54/34/5
f 54/34/5 60/40/5 55/35/5
f 55/35/5 61/41/5 56/10/5
f 16/36/5 15/42/5 57/37/5
f 57/37/5 63/43/5 58/38/5
f 58/38/5 64/44/5 59/39/5
f 59/39/5 65/45/5 60/40/5
f 60/40/5 66/46/5 61/41/5
f 61/41/5 67/47/5 62/12/5
f 15/42/5 14/48/5 63/43/5
f 63/43/5 69/49/5 64/44/5
f 64/44/5 70/50/5 65/45/5
f 65/45/5 71/51/5 66/46/5
f 66/46/5 72/52/5 67/47/5
f 67/47/5 73/53/5 68/14/5
f 69/49/5 14/48/5 75/55/5
f 69/49/5 75/55/5 70/50/5
f 70/50/5 76/56/5 71/51/5
f 71/51/5 77/57/5 72/52/5
f 72/52/5 78/58/5 73/53/5
f 73/53/5 79/59/5 74/16/5
f 13/54/5 2/60/5 75/55/5
f 76/56/5 75/55/5 27/62/5
f 76/56/5 27/62/5 77/57/5
f 77/57/5 26/63/5 78/58/5
f 78/58/5 25/64/5 79/59/5
f 79/59/5 24/65/5 80/18/5
f 32/83/4 84/66/4 3/68/4
f 84/66/6 88/69/6 44/67/6
f 88/69/4 92/71/4 43/70/4
f 92/71/4 96/73/4 42/72/4
f 96/73/4 100/75/4 41/74/4
f 100/75/7 104/77/7 40/76/7
f 29/176/4 81/78/4 30/80/4
f 30/80/4 82/79/4 31/82/4
f 31/82/4 83/81/4 32/83/4
f 81/78/6 85/84/6 82/79/6
f 82/79/6 86/85/6 83/81/6
f 83/81/6 87/86/6 84/66/6
f 85/84/4 89/87/4 86/85/4
f 86/85/4 90/88/4 87/86/4
f 87/86/4 91/89/4 88/69/4
f 89/87/4 93/90/4 90/88/4
f 90/88/4 94/91/4 91/89/4
f 91/89/4 95/92/4 92/71/4
f 93/90/4 97/93/4 94/91/4
f 94/91/4 98/94/4 95/92/4
f 95/92/4 99/95/4 96/73/4
f 97/93/7 101/96/7 98/94/7
f 98/94/7 102/97/7 99/95/7
f 99/95/7 103/98/7 100/75/7
f 101/96/4 8/99/4 102/97/4
f 102/97/4 7/100/4 103/98/4
f 103/98/4 6/101/4 104/77/4
f 22/83/3 108/66/3 4/68/3
f 108/66/8 112/69/8 38/67/8
f 112/69/3 116/71/3 37/70/3
f 116/71/3 120/73/3 36/72/3
f 120/73/3 124/75/3 35/74/3
f 124/75/9 128/77/9 34/76/9
f 19/176/3 105/78/3 20/80/3
f 20/80/3 106/79/3 21/82/3
f 21/82/3 107/81/3 22/83/3
f 105/78/8 109/84/8 106/79/8
f 106/79/8 110/85/8 107/81/8
f 107/81/8 111/86/8 108/66/8
f 109/84/3 113/87/3 110/85/3
f 110/85/3 114/88/3 111/86/3
f 111/86/3 115/89/3 112/69/3
f 113/87/3 117/90/3 114/88/3
f 114/88/3 118/91/3 115/89/3
f 115/89/3 119/92/3 116/71/3
f 117/90/3 121/93/3 118/91/3
f 118/91/3 122/94/3 119/92/3
f 119/92/3 123/95/3 120/73/3
f 121/93/9 125/96/9 122/94/9
f 122/94/9 126/97/9 123/95/9
f 123/95/9 127/98/9 124/75/9
f 125/96/3 29/99/3 126/97/3
f 126/97/3 30/100/3 127/98/3
f 127/98/3 31/101/3 128/77/3
f 12/83/2 132/66/2 2/68/2
f 132/66/10 136/69/10 28/67/10
f 136/69/2 140/71/2 27/70/2
f 140/71/2 144/73/2 26/72/2
f 144/73/2 148/75/2 25/74/2
f 148/75/11 152/77/11 24/76/11
f 9/176/2 129/78/2 10/80/2
f 10/80/2 130/79/2 11/82/2
f 11/82/2 131/81/2 12/83/2
f 129/78/10 133/84/10 130/79/10
f 130/79/10 134/85/10 131/81/10
f 131/81/10 135/86/10 132/66/10
f 133/84/2 137/87/2 134/85/2
f 134/85/2 138/88/2 135/86/2
f 135/86/2 139/89/2 136/69/2
f 137/87/2 141/90/2 138/88/2
f 138/88/2 142/91/2 139/89/2
f 139/89/2 143/92/2 140/71/2
f 141/90/2 145/93/2 142/91/2
f 142/91/2 146/94/2 143/92/2
f 143/92/2 147/95/2 144/73/2
f 145/93/11 149/96/11 146/94/11
f 146/94/11 150/97/11 147/95/11
f 147/95/11 151/98/11 148/75/11
f 149/96/2 19/99/2 150/97/2
f 150/97/2 20/100/2 151/98/2
f 151/98/2 21/101/2 152/77/2
f 5/83/1 156/66/1 1/68/1
f 156/66/12 160/69/12 18/67/12
f 160/69/1 164/71/1 17/70/1
f 164/71/1 168/73/1 16/72/1
f 168/73/1 172/75/1 15/74/1
f 172/75/13 176/77/13 14/76/13
f 8/176/1 153/78/1 7/80/1
f 7/80/1 154/79/1 6/82/1
f 6/82/1 155/81/1 5/83/1
f 153/78/12 157/84/12 154/79/12
f 154/79/12 158/85/12 155/81/12
f 155/81/12 159/86/12 156/66/12
f 157/84/1 161/87/1 158/85/1
f 158/85/1 162/88/1 159/86/1
f 159/86/1 163/89/1 160/69/1
f 161/87/1 165/90/1 162/88/1
f 162/88/1 166/91/1 163/89/1
f 163/89/1 167/92/1 164/71/1
f 165/90/1 169/93/1 166/91/1
f 166/91/1 170/94/1 167/92/1
f 167/92/1 171/95/1 168/73/1
f 145/130/14 109/126/14 105/102/14
f 105/102/14 149/104/14 145/130/14
f 169/93/13 173/96/13 170/94/13
f 170/94/13 174/97/13 171/95/13
f 171/95/13 175/98/13 172/75/13
f 173/96/1 9/99/1 174/97/1
f 174/97/1 10/100/1 175/98/1
f 175/98/1 11/101/1 176/77/1
f 169/131/14 133/132/14 129/105/14
f 129/105/14 173/107/14 169/131/14
f 153/110/14 8/177/14 101/108/14
f 97/109/14 157/119/14 153/110/14
f 121/129/14 85/128/14 81/111/14
f 81/111/14 125/113/14 121/129/14
f 169/131/14 165/114/14 180/116/14
f 165/114/14 161/117/14 179/115/14
f 161/117/14 157/119/14 178/118/14
f 121/129/14 117/121/14 184/123/14
f 117/121/14 113/124/14 183/122/14
f 113/124/14 109/126/14 182/125/14
f 186/127/14 145/130/14 188/134/14
f 141/133/14 137/135/14 188/134/14
f 137/135/14 133/132/14 187/136/14
f 93/139/14 189/137/14 97/109/14
f 89/178/14 190/138/14 93/139/14
f 89/178/14 85/128/14 190/138/14
f 222/150/21 199/141/21 194/140/21
f 185/179/14 202/144/14 203/143/14
f 210/145/16 202/144/16 214/146/16
f 214/146/16 201/147/16 218/148/16
f 218/148/16 200/149/16 222/150/16
f 186/180/14 206/152/14 195/151/14
f 206/152/18 205/154/18 207/153/18
f 205/154/18 204/156/18 208/155/18
f 204/156/18 203/143/18 209/157/18
f 195/151/19 207/153/19 196/158/19
f 207/153/14 208/155/14 211/159/14
f 208/155/14 209/157/14 212/160/14
f 209/157/14 210/145/14 213/161/14
f 196/158/19 211/159/19 197/162/19
f 211/159/14 212/160/14 215/163/14
f 212/160/14 213/161/14 216/164/14
f 213/161/14 214/146/14 217/165/14
f 197/162/19 215/163/19 198/166/19
f 215/163/14 216/164/14 219/167/14
f 216/164/14 217/165/14 220/168/14
f 217/165/14 218/148/14 221/169/14
f 219/167/22 191/170/22 198/166/22
f 219/167/20 220/168/20 191/170/20
f 220/168/20 221/169/20 192/172/20
f 221/169/20 222/150/20 193/173/20
